# Tiled2Unity generated file. Do not modify by hand.
# Wavefront file for 'brokenWall_mesh_0001.obj'

# Vertices (Count = 20)
v 0 -16 0
v -16 -16 0
v -16 0 0
v 0 0 0
v 0 -32 0
v -16 -32 0
v -16 -16 0
v 0 -16 0
v 0 -48 0
v -16 -48 0
v -16 -32 0
v 0 -32 0
v 0 -64 0
v -16 -64 0
v -16 -48 0
v 0 -48 0
v 0 -80 0
v -16 -80 0
v -16 -64 0
v 0 -64 0

# Texture cooridinates (Count = 6)
vt 0 0.625
vt 0.0625 0.625
vt 0.0625 0.6875
vt 0 0.6875
vt 0 0.5625
vt 0.0625 0.5625

# Normal
vn 0 0 -1

# Mesh description
g brokenWall_mesh_0001

# Faces
f 1/1/1 2/2/1 3/3/1 4/4/1
f 5/5/1 6/6/1 7/2/1 8/1/1
f 9/1/1 10/2/1 11/3/1 12/4/1
f 13/5/1 14/6/1 15/2/1 16/1/1
f 17/1/1 18/2/1 19/3/1 20/4/1

