# Tiled2Unity generated file. Do not modify by hand.
# Wavefront file for 'Platform-Test_mesh_0001.obj'

# Vertices (Count = 200)
v 0 -128 0
v -16 -128 0
v -16 -112 0
v 0 -112 0
v -16 -128 0
v -32 -128 0
v -32 -112 0
v -16 -112 0
v -32 -128 0
v -48 -128 0
v -48 -112 0
v -32 -112 0
v -48 -128 0
v -64 -128 0
v -64 -112 0
v -48 -112 0
v -64 -128 0
v -80 -128 0
v -80 -112 0
v -64 -112 0
v -80 -128 0
v -96 -128 0
v -96 -112 0
v -80 -112 0
v -96 -128 0
v -112 -128 0
v -112 -112 0
v -96 -112 0
v -112 -128 0
v -128 -128 0
v -128 -112 0
v -112 -112 0
v -128 -128 0
v -144 -128 0
v -144 -112 0
v -128 -112 0
v -144 -128 0
v -160 -128 0
v -160 -112 0
v -144 -112 0
v 0 -144 0
v -16 -144 0
v -16 -128 0
v 0 -128 0
v -16 -144 0
v -32 -144 0
v -32 -128 0
v -16 -128 0
v -32 -144 0
v -48 -144 0
v -48 -128 0
v -32 -128 0
v -48 -144 0
v -64 -144 0
v -64 -128 0
v -48 -128 0
v -64 -144 0
v -80 -144 0
v -80 -128 0
v -64 -128 0
v -80 -144 0
v -96 -144 0
v -96 -128 0
v -80 -128 0
v -96 -144 0
v -112 -144 0
v -112 -128 0
v -96 -128 0
v -112 -144 0
v -128 -144 0
v -128 -128 0
v -112 -128 0
v -128 -144 0
v -144 -144 0
v -144 -128 0
v -128 -128 0
v -144 -144 0
v -160 -144 0
v -160 -128 0
v -144 -128 0
v 0 -160 0
v -16 -160 0
v -16 -144 0
v 0 -144 0
v -16 -160 0
v -32 -160 0
v -32 -144 0
v -16 -144 0
v -32 -160 0
v -48 -160 0
v -48 -144 0
v -32 -144 0
v -48 -160 0
v -64 -160 0
v -64 -144 0
v -48 -144 0
v -64 -160 0
v -80 -160 0
v -80 -144 0
v -64 -144 0
v -80 -160 0
v -96 -160 0
v -96 -144 0
v -80 -144 0
v -96 -160 0
v -112 -160 0
v -112 -144 0
v -96 -144 0
v -112 -160 0
v -128 -160 0
v -128 -144 0
v -112 -144 0
v -128 -160 0
v -144 -160 0
v -144 -144 0
v -128 -144 0
v -144 -160 0
v -160 -160 0
v -160 -144 0
v -144 -144 0
v 0 -176 0
v -16 -176 0
v -16 -160 0
v 0 -160 0
v -16 -176 0
v -32 -176 0
v -32 -160 0
v -16 -160 0
v -32 -176 0
v -48 -176 0
v -48 -160 0
v -32 -160 0
v -48 -176 0
v -64 -176 0
v -64 -160 0
v -48 -160 0
v -64 -176 0
v -80 -176 0
v -80 -160 0
v -64 -160 0
v -80 -176 0
v -96 -176 0
v -96 -160 0
v -80 -160 0
v -96 -176 0
v -112 -176 0
v -112 -160 0
v -96 -160 0
v -112 -176 0
v -128 -176 0
v -128 -160 0
v -112 -160 0
v -128 -176 0
v -144 -176 0
v -144 -160 0
v -128 -160 0
v -144 -176 0
v -160 -176 0
v -160 -160 0
v -144 -160 0
v 0 -192 0
v -16 -192 0
v -16 -176 0
v 0 -176 0
v -16 -192 0
v -32 -192 0
v -32 -176 0
v -16 -176 0
v -32 -192 0
v -48 -192 0
v -48 -176 0
v -32 -176 0
v -48 -192 0
v -64 -192 0
v -64 -176 0
v -48 -176 0
v -64 -192 0
v -80 -192 0
v -80 -176 0
v -64 -176 0
v -80 -192 0
v -96 -192 0
v -96 -176 0
v -80 -176 0
v -96 -192 0
v -112 -192 0
v -112 -176 0
v -96 -176 0
v -112 -192 0
v -128 -192 0
v -128 -176 0
v -112 -176 0
v -128 -192 0
v -144 -192 0
v -144 -176 0
v -128 -176 0
v -144 -192 0
v -160 -192 0
v -160 -176 0
v -144 -176 0

# Texture cooridinates (Count = 24)
vt 0 0.9375
vt 0.0625 0.9375
vt 0.0625 1
vt 0 1
vt 0.125 0.9375
vt 0.125 1
vt 0.1875 0.9375
vt 0.1875 1
vt 0 0.875
vt 0.0625 0.875
vt 0.125 0.875
vt 0.125 0.75
vt 0.1875 0.75
vt 0.1875 0.8125
vt 0.125 0.8125
vt 0 0.8125
vt 0.0625 0.8125
vt 0.1875 0.875
vt 0 0.6875
vt 0.0625 0.6875
vt 0.0625 0.75
vt 0 0.75
vt 0.125 0.6875
vt 0.1875 0.6875

# Normal
vn 0 0 -1

# Mesh description
g Platform-Test_mesh_0001

# Faces
f 1/1/1 2/2/1 3/3/1 4/4/1
f 5/2/1 6/5/1 7/6/1 8/3/1
f 9/2/1 10/5/1 11/6/1 12/3/1
f 13/2/1 14/5/1 15/6/1 16/3/1
f 17/2/1 18/5/1 19/6/1 20/3/1
f 21/2/1 22/5/1 23/6/1 24/3/1
f 25/2/1 26/5/1 27/6/1 28/3/1
f 29/2/1 30/5/1 31/6/1 32/3/1
f 33/2/1 34/5/1 35/6/1 36/3/1
f 37/5/1 38/7/1 39/8/1 40/6/1
f 41/9/1 42/10/1 43/2/1 44/1/1
f 45/10/1 46/11/1 47/5/1 48/2/1
f 49/10/1 50/11/1 51/5/1 52/2/1
f 53/10/1 54/11/1 55/5/1 56/2/1
f 57/10/1 58/11/1 59/5/1 60/2/1
f 61/10/1 62/11/1 63/5/1 64/2/1
f 65/10/1 66/11/1 67/5/1 68/2/1
f 69/10/1 70/11/1 71/5/1 72/2/1
f 73/10/1 74/11/1 75/5/1 76/2/1
f 77/12/1 78/13/1 79/14/1 80/15/1
f 81/16/1 82/17/1 83/10/1 84/9/1
f 85/17/1 86/15/1 87/11/1 88/10/1
f 89/17/1 90/15/1 91/11/1 92/10/1
f 93/17/1 94/15/1 95/11/1 96/10/1
f 97/17/1 98/15/1 99/11/1 100/10/1
f 101/17/1 102/15/1 103/11/1 104/10/1
f 105/17/1 106/15/1 107/11/1 108/10/1
f 109/17/1 110/15/1 111/11/1 112/10/1
f 113/17/1 114/15/1 115/11/1 116/10/1
f 117/15/1 118/14/1 119/18/1 120/11/1
f 121/9/1 122/10/1 123/2/1 124/1/1
f 125/10/1 126/11/1 127/5/1 128/2/1
f 129/10/1 130/11/1 131/5/1 132/2/1
f 133/10/1 134/11/1 135/5/1 136/2/1
f 137/10/1 138/11/1 139/5/1 140/2/1
f 141/10/1 142/11/1 143/5/1 144/2/1
f 145/10/1 146/11/1 147/5/1 148/2/1
f 149/10/1 150/11/1 151/5/1 152/2/1
f 153/10/1 154/11/1 155/5/1 156/2/1
f 157/12/1 158/13/1 159/14/1 160/15/1
f 161/19/1 162/20/1 163/21/1 164/22/1
f 165/20/1 166/23/1 167/12/1 168/21/1
f 169/20/1 170/23/1 171/12/1 172/21/1
f 173/20/1 174/23/1 175/12/1 176/21/1
f 177/20/1 178/23/1 179/12/1 180/21/1
f 181/20/1 182/23/1 183/12/1 184/21/1
f 185/20/1 186/23/1 187/12/1 188/21/1
f 189/20/1 190/23/1 191/12/1 192/21/1
f 193/20/1 194/23/1 195/12/1 196/21/1
f 197/23/1 198/24/1 199/13/1 200/12/1

